<svg xmlns="http://www.w3.org/2000/svg" xmlns:xlink="http://www.w3.org/1999/xlink" width="1437" height="368" viewBox="0 0 1437 368">
  <defs>
    <clipPath id="clip-Artboard_151">
      <rect width="1437" height="368"/>
    </clipPath>
  </defs>
  <g id="Artboard_151" data-name="Artboard – 151" clip-path="url(#clip-Artboard_151)">
    <text id="Aiid_studio" data-name="Aiid studio" transform="translate(362.745 243)" fill="#1e1e1e" font-size="189" font-family="Comfortaa" font-weight="700"><tspan x="0" y="0">aiid studio</tspan></text>
    <g id="infinite-outline" transform="translate(7.04 48.375)">
      <g id="Path_3" data-name="Path 3" transform="translate(105.063)" fill="none" stroke-linecap="round" stroke-linejoin="bevel" stroke-miterlimit="10">
        <path d="M25.405,138.881s2.714,5.866,7.531,14.7a339.391,339.391,0,0,0,20.5,33.071c8.761,12.38,19.258,25.087,30.96,35.14,12,10.314,25.41,17.947,39.716,19.611a49.538,49.538,0,0,0,28.443-4.919c8.811-4.448,16.53-11.579,22.726-20.918,6.334-9.548,11.042-21.351,13.663-34.824a141.053,141.053,0,0,0,1.022-45.152,159.425,159.425,0,0,0-13.056-45.578,133.323,133.323,0,0,0-23.516-35.6c-9-9.59-18.984-16.83-29.352-21.2-10.135-4.268-20.576-5.763-30.783-4.056a49.67,49.67,0,0,0-19.1,7.65,72.013,72.013,0,0,0-15.579,14.17A111.7,111.7,0,0,0,46.315,69.262a155.477,155.477,0,0,0-9.148,20.317" stroke="none"/>
        <path d="M 91.46006011962891 16.77496528625488 C 102.7856826782227 14.68558692932129 114.4162063598633 16.18486213684082 125.7437973022461 20.81196212768555 C 137.3617401123047 25.55763053894043 148.5818176269531 33.56091690063477 158.7160186767578 44.2418327331543 C 169.0288696289062 55.11099624633789 178.1196746826172 68.64982604980469 185.2613983154297 84.13263702392578 C 192.4521331787109 99.72173309326172 197.5808868408203 117.0947723388672 199.9546051025391 135.392822265625 C 202.3135528564453 153.5768890380859 201.7005310058594 170.7457580566406 198.6258850097656 186.0806274414062 C 195.6042327880859 201.1514282226562 190.2329254150391 214.3104858398438 183.0487365722656 224.9028930664062 C 176.0401611328125 235.2364044189453 167.3464813232422 243.0675354003906 157.4641571044922 247.8778686523438 C 147.8598785400391 252.5527954101562 137.1569213867188 254.3627319335938 125.7788543701172 252.8728637695312 C 110.4458999633789 250.8651733398438 96.23513031005859 242.8686676025391 83.56987762451172 232.1510314941406 C 71.24473571777344 221.7212219238281 60.24183654785156 208.5954132080078 51.03125381469727 195.7169799804688 C 41.97134780883789 183.0491943359375 34.55991744995117 170.5011596679688 29.3123607635498 160.9047698974609 C 24.10538864135742 151.382568359375 20.9879264831543 144.6915893554688 20.52351188659668 143.6834411621094 C 19.93026924133301 142.3956298828125 19.50040245056152 141.0362854003906 19.23064994812012 139.6796569824219 C 18.9608154296875 138.3226470947266 18.8509693145752 136.9670715332031 18.8983268737793 135.6876983642578 C 18.94573593139648 134.4067687988281 19.15079498291016 133.2011413574219 19.5111141204834 132.1462249755859 C 19.87215232849121 131.0892639160156 20.38929748535156 130.1828765869141 21.06039428710938 129.5034484863281 C 21.25610733032227 129.3053283691406 21.45959663391113 129.1320037841797 21.66963386535645 128.9828643798828 C 21.87979507446289 128.8336181640625 22.09652137756348 128.7086486816406 22.31857872009277 128.6073608398438 C 22.54080390930176 128.5060272216797 22.76835060119629 128.4283905029297 22.99999618530273 128.3739929199219 C 23.2318058013916 128.3195037841797 23.46772766113281 128.2882537841797 23.70652770996094 128.2796630859375 C 24.28863906860352 128.2587585449219 24.8878288269043 128.3724060058594 25.4863109588623 128.6124572753906 C 26.08572196960449 128.8528747558594 26.68430709838867 129.2200622558594 27.26409530639648 129.7056579589844 C 27.84465026855469 130.1919097900391 28.40616035461426 130.7967071533203 28.93056678771973 131.5115814208984 C 29.45546531677246 132.2271423339844 29.94294929504395 133.0527038574219 30.37487983703613 133.9794464111328 C 30.47812461853027 134.2009429931641 33.14569091796875 139.8582305908203 37.77357482910156 148.2494964599609 C 42.43318557739258 156.6983032226562 49.1135368347168 167.9793701171875 57.24694442749023 179.4047088623047 C 65.49933624267578 190.9971771240234 75.31575775146484 202.8338470458984 86.15288543701172 212.1268920898438 C 97.24796295166016 221.64111328125 109.5203018188477 228.5808715820312 122.4383697509766 229.8918151855469 C 131.5321044921875 230.8146514892578 140.0330963134766 229.0974884033203 147.6122131347656 225.1216125488281 C 155.3658752441406 221.0541534423828 162.1377716064453 214.6317138671875 167.5545196533203 206.2922515869141 C 173.0783386230469 197.7879791259766 177.1667327880859 187.3308258056641 179.4238433837891 175.4449462890625 C 181.7119445800781 163.3958740234375 182.1011810302734 149.9688720703125 180.2133636474609 135.7873077392578 C 178.3163452148438 121.536506652832 174.3174896240234 108.0030670166016 168.7424621582031 95.83025360107422 C 163.1973419189453 83.72270965576172 156.1445770263672 73.07427978515625 148.1305236816406 64.44834899902344 C 140.2258911132812 55.94021224975586 131.4442901611328 49.4625244140625 122.309700012207 45.48990631103516 C 113.3563766479492 41.59610366821289 104.1120300292969 40.12997817993164 95.05255889892578 41.48969268798828 C 89.6463623046875 42.30110168457031 84.39278411865234 44.25266265869141 79.37203216552734 47.23141479492188 C 74.42814636230469 50.16456604003906 69.71243286132812 54.09228897094727 65.29714202880859 58.90765380859375 C 60.94983673095703 63.64886093139648 56.89350509643555 69.25084686279297 53.19374084472656 75.61544799804688 C 49.54938507080078 81.88474273681641 46.24892425537109 88.89751434326172 43.35293197631836 96.56585693359375 C 43.11188507080078 97.20413970947266 42.82745742797852 97.76929473876953 42.50751876831055 98.26005554199219 C 42.18799591064453 98.75017547607422 41.83308792114258 99.16608428955078 41.45064163208008 99.506591796875 C 41.0687141418457 99.84662628173828 40.65934371948242 100.1114654541016 40.23031616210938 100.2999496459961 C 39.8018798828125 100.488151550293 39.35381317138672 100.6002349853516 38.89387130737305 100.6350555419922 C 38.49437713623047 100.6652908325195 38.08590316772461 100.6372833251953 37.67349624633789 100.55029296875 C 37.26153564453125 100.4633941650391 36.84561920166016 100.3176422119141 36.43067932128906 100.1122589111328 C 36.01617813110352 99.9071044921875 35.6026496887207 99.64241790771484 35.19501495361328 99.31743621826172 C 34.78777313232422 98.99275970458984 34.38636016845703 98.60784912109375 33.99570465087891 98.16189575195312 C 33.15689468383789 97.20432281494141 32.4466438293457 96.05522155761719 31.87989044189453 94.79677581787109 C 31.31349563598633 93.53912353515625 30.88984680175781 92.17100524902344 30.62435340881348 90.77420806884766 C 30.3587532043457 89.37692260742188 30.25116729736328 87.94957733154297 30.31743812561035 86.57402038574219 C 30.38378143310547 85.19673156738281 30.62449836730957 83.87008666992188 31.05603218078613 82.67652130126953 C 34.28009414672852 73.75908660888672 38.00315856933594 65.56636810302734 42.15845489501953 58.20235443115234 C 46.38727569580078 50.70801162719727 51.06752395629883 44.06531143188477 56.12621307373047 38.39273452758789 C 61.27830123901367 32.61545181274414 66.82447052001953 27.8427619934082 72.68312835693359 24.20615196228027 C 78.65081787109375 20.50187110900879 84.94065093994141 17.97768211364746 91.46006011962891 16.77496528625488 Z" stroke="none" fill="#72a2ad"/>
      </g>
      <g id="Path_4" data-name="Path 4" transform="translate(0 30.526)" fill="none" stroke-linecap="round" stroke-linejoin="bevel" stroke-miterlimit="10">
        <path d="M130.468,108.355s-2.705-5.847-7.454-14.552A309.266,309.266,0,0,0,103.627,62.61c-7.859-10.988-16.9-21.647-26.412-29.1-9.3-7.287-18.965-11.453-28.328-9.887-6.325,1.058-11.811,4.437-16.331,9.575-4.431,5.038-7.946,11.781-10.428,19.726a102.165,102.165,0,0,0-4.248,26.614,147.353,147.353,0,0,0,2.332,31.024,159.5,159.5,0,0,0,8.641,30.572,129.933,129.933,0,0,0,13.353,25.477A79.948,79.948,0,0,0,59,184.921c6.08,4.663,12.493,7.624,18.944,8.374a25.1,25.1,0,0,0,12.851-1.862,35.649,35.649,0,0,0,11.343-7.99,65.517,65.517,0,0,0,9.653-12.884A109.931,109.931,0,0,0,119.53,154.2" stroke="none"/>
        <path d="M 47.20545196533203 13.79542636871338 C 57.25232696533203 11.94196224212646 67.55010223388672 15.9827823638916 77.43778228759766 23.3178596496582 C 87.57392883300781 30.83725357055664 97.18431091308594 41.74776077270508 105.5830383300781 53.16210556030273 C 114.1173706054688 64.76074981689453 121.326042175293 76.77811431884766 126.5358810424805 86.18938446044922 C 131.7865753173828 95.67446136474609 134.9659881591797 102.4383010864258 135.4416961669922 103.4620513916016 C 136.0501556396484 104.771484375 136.4894561767578 106.1570587158203 136.7625427246094 107.5406723022461 C 137.0355529785156 108.9238586425781 137.1421813964844 110.3037185668945 137.0859527587891 111.6025695800781 C 137.02978515625 112.8998260498047 136.8112182617188 114.1151733398438 136.4340667724609 115.1716384887695 C 136.0576782226562 116.2260284423828 135.5236206054688 117.1214447021484 134.8359832763672 117.7819442749023 C 134.6360931396484 117.9739151000977 134.4287261962891 118.1407012939453 134.2151031494141 118.2829437255859 C 134.0016326904297 118.4250869750977 133.7819061279297 118.5427169799805 133.5572052001953 118.6364898681641 C 133.3327026367188 118.7302093505859 133.1031799316406 118.8000717163086 132.8699340820312 118.8467712402344 C 132.6368560791016 118.8934326171875 132.4000244140625 118.9169311523438 132.1607208251953 118.9179229736328 C 131.5787658691406 118.9203414916992 130.9819183349609 118.7897720336914 130.3877410888672 118.5353698730469 C 129.7945251464844 118.2813873291016 129.203857421875 117.903938293457 128.6331939697266 117.4120788574219 C 128.0632934570312 116.9208602905273 127.5131378173828 116.3153610229492 127.0001068115234 115.6044616699219 C 126.4875793457031 114.8942565917969 126.0118637084961 114.0785293579102 125.5902252197266 113.1659240722656 C 125.4894943237305 112.9479141235352 122.8961029052734 107.3988494873047 118.4501419067383 99.25167083740234 C 114.0336151123047 91.15842437744141 107.8189697265625 80.55635833740234 100.474739074707 70.18336486816406 C 93.23028564453125 59.95131683349609 84.939208984375 50.01634216308594 76.27235412597656 43.00875854492188 C 67.78546142578125 36.14673233032227 59.00164794921875 32.14333343505859 50.56383895874023 33.40975952148438 C 44.92895126342773 34.2554817199707 40.02420806884766 37.17201232910156 35.96887588500977 41.66736221313477 C 31.98432731628418 46.08424758911133 28.81035804748535 52.03577423095703 26.55599784851074 59.07673645019531 C 24.33366203308105 66.01766967773438 22.99627113342285 74.04446411132812 22.65342712402344 82.75968933105469 C 22.31383323669434 91.39211273193359 22.94812393188477 100.7466888427734 24.67794036865234 110.4689788818359 C 26.40199661254883 120.1589431762695 29.06624603271484 129.3811950683594 32.41962051391602 137.8033142089844 C 35.78533554077148 146.2564544677734 39.86704635620117 153.9582672119141 44.41908645629883 160.54345703125 C 49.01523590087891 167.1924438476562 54.11608123779297 172.7394714355469 59.46946716308594 176.7794036865234 C 64.90203857421875 180.8791046142578 70.61933135986328 183.4453430175781 76.35269165039062 184.0271759033203 C 79.89480590820312 184.3866424560547 83.39190673828125 183.8749694824219 86.79294586181641 182.5266723632812 C 90.23671722412109 181.1614532470703 93.58456420898438 178.9373779296875 96.78101348876953 175.8892364501953 C 100.0196533203125 172.8008728027344 103.1039276123047 168.8655395507812 105.9738464355469 164.1206359863281 C 108.8821640014648 159.3121948242188 111.5699844360352 153.6729888916016 113.9728927612305 147.2456207275391 C 114.1758651733398 146.7026977539062 114.4182434082031 146.2283172607422 114.6933135986328 145.8229675292969 C 114.9687042236328 145.4171295166016 115.2768707275391 145.0804138183594 115.6110610961914 144.8133239746094 C 115.945671081543 144.5458984375 116.3063812255859 144.3482513427734 116.6863708496094 144.2209167480469 C 117.0668563842773 144.0934295654297 117.466682434082 144.0364074707031 117.8789749145508 144.0503997802734 C 118.2379684448242 144.0625915527344 118.6063919067383 144.1286163330078 118.9797439575195 144.2488098144531 C 119.3534927368164 144.369140625 119.7321548461914 144.5437469482422 120.1111526489258 144.77294921875 C 120.4905319213867 145.0023956298828 120.870231628418 145.2865142822266 121.2456741333008 145.6256561279297 C 121.6214294433594 145.9650421142578 121.9928817749023 146.3595123291016 122.3554153442383 146.8092956542969 C 123.1357269287109 147.7774200439453 123.8001708984375 148.9094085693359 124.3330535888672 150.1271057128906 C 124.8662567138672 151.3455657958984 125.2672500610352 152.6486968994141 125.5206604003906 153.9579925537109 C 125.7740020751953 155.2668609619141 125.8796539306641 156.5807189941406 125.8227386474609 157.8212432861328 C 125.765869140625 159.0602264404297 125.546875 160.2249603271484 125.1513137817383 161.2376251220703 C 122.2484588623047 168.6693267822266 118.9893646240234 175.1567993164062 115.4548187255859 180.6548309326172 C 111.9754028320312 186.067138671875 108.2300109863281 190.5192413330078 104.2931365966797 193.9732971191406 C 100.4171447753906 197.3739166259766 96.3544921875 199.8080444335938 92.173095703125 201.2413787841797 C 88.05370330810547 202.6534729003906 83.81588745117188 203.0953369140625 79.52127838134766 202.5329742431641 C 72.37324523925781 201.5970153808594 65.27584838867188 198.2184448242188 58.55595779418945 192.9744415283203 C 51.95686340332031 187.8246612548828 45.68498611450195 180.8472900390625 40.04313659667969 172.548828125 C 34.46775436401367 164.3480987548828 29.47025108337402 154.8023529052734 25.3442325592041 144.3582458496094 C 21.23672485351562 133.9609985351562 17.96035003662109 122.5910186767578 15.81685829162598 110.6460494995117 C 13.66454029083252 98.65192413330078 12.8364315032959 87.09335327148438 13.18982124328613 76.3985595703125 C 13.54738616943359 65.5772705078125 15.11703395843506 55.56715774536133 17.77456283569336 46.86096572875977 C 20.47953987121582 37.99936676025391 24.32509803771973 30.44461059570312 29.18903541564941 24.76260757446289 C 34.16062164306641 18.95481491088867 40.2115592956543 15.08567714691162 47.20545196533203 13.79542636871338 Z" stroke="none" fill="#72a2ad"/>
      </g>
    </g>
  </g>
</svg>
