<svg xmlns="http://www.w3.org/2000/svg" xmlns:xlink="http://www.w3.org/1999/xlink" width="200" height="70" viewBox="0 0 200 70">
  <defs>
    <clipPath id="clip-Artboard_152">
      <rect width="200" height="70"/>
    </clipPath>
  </defs>
  <g id="Artboard_152" data-name="Artboard – 152" clip-path="url(#clip-Artboard_152)">
    <g id="Group_29" data-name="Group 29" transform="translate(0 0)">
      <text id="Aiid_studio" data-name="Aiid studio" transform="translate(47.745 43)" fill="#1e1e1e" font-size="25" font-family="Comfortaa" font-weight="700"><tspan x="0" y="0">aiid studio</tspan></text>
      <g id="infinite-outline" transform="translate(10.857 19.062)">
        <g id="Path_3" data-name="Path 3" transform="translate(11.844 1.711)" fill="none" stroke-linecap="round" stroke-linejoin="bevel" stroke-miterlimit="10">
          <path d="M3.806,14.078s.313.78.852,1.964,1.3,2.773,2.208,4.39A29.806,29.806,0,0,0,9.914,25a6.689,6.689,0,0,0,3.38,2.477,2.3,2.3,0,0,0,2.026-.526,4.786,4.786,0,0,0,1.315-2.273A13.162,13.162,0,0,0,17.119,21a24.407,24.407,0,0,0-.465-4.714,29.858,29.858,0,0,0-1.373-4.878A24.506,24.506,0,0,0,13.3,7.3a13.373,13.373,0,0,0-2.318-2.916A4.735,4.735,0,0,0,8.6,3.087a2.263,2.263,0,0,0-1.465.265A3.637,3.637,0,0,0,5.959,4.47a8.094,8.094,0,0,0-.9,1.741,15.112,15.112,0,0,0-.631,2.138" stroke="none"/>
          <path d="M 8.231363296508789 1.188706994056702 C 9.125461578369141 1.31783401966095 10.0574779510498 1.839588522911072 10.97705364227295 2.673673152923584 C 11.89930629730225 3.510188341140747 12.80827045440674 4.660147666931152 13.65286159515381 6.041467666625977 C 14.49910354614258 7.425488471984863 15.27980327606201 9.040277481079102 15.94349479675293 10.80204296112061 C 16.60768508911133 12.56513023376465 17.15381813049316 14.4730920791626 17.53054809570312 16.44075393676758 C 17.90701675415039 18.40706253051758 18.07867622375488 20.24689674377441 18.06704139709473 21.88827705383301 C 18.05542945861816 23.52647972106934 17.86124229431152 24.96522903442383 17.50645446777344 26.13442993164062 C 17.15266990661621 27.30031394958496 16.63945388793945 28.19732475280762 15.98876190185547 28.75713348388672 C 15.34027481079102 29.3150463104248 14.555495262146 29.53781700134277 13.6559944152832 29.35847854614258 C 13.36110687255859 29.2996826171875 13.05873203277588 29.19594573974609 12.74944019317627 29.04775428771973 C 12.44050312042236 28.89973831176758 12.12465000152588 28.70736122131348 11.80244541168213 28.47110748291016 C 11.48059368133545 28.23511123657227 11.15239143371582 27.9553279876709 10.81839752197266 27.63222503662109 C 10.48475170135498 27.30945587158203 10.1453104019165 26.94344711303711 9.800627708435059 26.5346508026123 C 9.534321784973145 26.21881294250488 9.264846801757812 25.87736892700195 8.992681503295898 25.51105690002441 C 8.72071647644043 25.14501571655273 8.44605827331543 24.75413513183594 8.169182777404785 24.33915519714355 C 7.892502307891846 23.92446708679199 7.613600254058838 23.4857006072998 7.332952499389648 23.02359199523926 C 7.052490711212158 22.5617847442627 6.770275592803955 22.07664680480957 6.486782550811768 21.56891059875488 C 6.012655258178711 20.71974945068359 5.57506275177002 19.87929344177246 5.184563159942627 19.09426689147949 C 4.794355392456055 18.30982780456543 4.451062202453613 17.58052062988281 4.165270805358887 16.95303344726562 C 3.879619359970093 16.32585144042969 3.651339530944824 15.8002290725708 3.491054058074951 15.42288398742676 C 3.330807685852051 15.04563045501709 3.238483190536499 14.81649017333984 3.224749803543091 14.78225898742676 C 3.129062175750732 14.54379081726074 3.054139852523804 14.29696083068848 3.000575542449951 14.05476188659668 C 2.947007417678833 13.81255149841309 2.914788007736206 13.57493114471436 2.904530763626099 13.35490798950195 C 2.894268751144409 13.13483905792236 2.905973434448242 12.93234252929688 2.940264225006104 12.76045894622803 C 2.97456693649292 12.58851146697998 3.03147554397583 12.44717407226562 3.111617088317871 12.34951305389404 C 3.134910106658936 12.32112312316895 3.1595299243927 12.29720687866211 3.18530797958374 12.27762699127197 C 3.211087465286255 12.25804328918457 3.238026142120361 12.24279880523682 3.265952110290527 12.23175811767578 C 3.293879270553589 12.22071838378906 3.322795629501343 12.21388339996338 3.352532625198364 12.2111234664917 C 3.382273197174072 12.20836353302002 3.412832260131836 12.20967864990234 3.444039583206177 12.21493339538574 C 3.520236968994141 12.22776699066162 3.600317001342773 12.26408100128174 3.681839227676392 12.32193374633789 C 3.763386011123657 12.37980270385742 3.846371650695801 12.45921993255615 3.928351640701294 12.55823707580566 C 4.010352611541748 12.65727806091309 4.091341972351074 12.77592277526855 4.168869972229004 12.91221809387207 C 4.246413707733154 13.04853630065918 4.320491790771484 13.20250034332275 4.388650894165039 13.37214946746826 C 4.397855281829834 13.39488124847412 4.479252815246582 13.59518146514893 4.622118473052979 13.9290018081665 C 4.765013217926025 14.26289939880371 4.969432830810547 14.73044586181641 5.224685192108154 15.28766822814941 C 5.480047702789307 15.84513282775879 5.7863450050354 16.49247550964355 6.132908344268799 17.18572807312012 C 6.479702949523926 17.87944412231445 6.86690092086792 18.61929321289062 7.283845901489258 19.36126708984375 C 7.524221420288086 19.78903007507324 7.762622833251953 20.19661140441895 7.998651504516602 20.58341026306152 C 8.234808921813965 20.97041702270508 8.468598365783691 21.33662796020508 8.699616432189941 21.68142700195312 C 8.930768013000488 22.02642631530762 9.159152030944824 22.34999465942383 9.384366035461426 22.65152168273926 C 9.60971736907959 22.9532299041748 9.831899642944336 23.23287391662598 10.05050659179688 23.48983192443848 C 10.31195068359375 23.79714202880859 10.56854057312012 24.07193565368652 10.81985759735107 24.31387901306152 C 11.07137393951416 24.55601119995117 11.31761646270752 24.7652473449707 11.5581636428833 24.94124412536621 C 11.79891014099121 25.11738777160645 12.03395748138428 25.26024055480957 12.26288604736328 25.36945724487305 C 12.49200820922852 25.47876930236816 12.71500492095947 25.55438995361328 12.93144989013672 25.59597015380859 C 13.5930814743042 25.72307586669922 14.16998672485352 25.55589485168457 14.64643096923828 25.14400672912598 C 15.12406444549561 24.73108863830566 15.50059509277344 24.07235717773438 15.76008224487305 23.21812629699707 C 16.02010917663574 22.36211395263672 16.16246223449707 21.31024360656738 16.17119216918945 20.1137809753418 C 16.17993354797363 18.91561698913574 16.05466461181641 17.57340049743652 15.77968788146973 16.1393985748291 C 15.50457286834717 14.70467662811279 15.10554790496826 13.31338882446289 14.62004375457764 12.02729034423828 C 14.13480758666992 10.74190425872803 13.56365585327148 9.562834739685059 12.94408130645752 8.551101684570312 C 12.32539367675781 7.540816783905029 11.65891361236572 6.698192119598389 10.98193073272705 6.083331108093262 C 10.30639457702637 5.469783782958984 9.620816230773926 5.083410263061523 8.962096214294434 4.983354091644287 C 8.747674942016602 4.950785160064697 8.538923263549805 4.951709270477295 8.336173057556152 4.985914707183838 C 8.133603096008301 5.02008581161499 7.937031269073486 5.087471008300781 7.746780395507812 5.18784761428833 C 7.55670690536499 5.288132667541504 7.372949123382568 5.421347618103027 7.195835113525391 5.58726978302002 C 7.018887042999268 5.753028869628906 6.848573207855225 5.95143461227417 6.685218334197998 6.182255268096924 C 6.540998458862305 6.386035442352295 6.402820587158203 6.615089893341064 6.271491050720215 6.867321014404297 C 6.140273571014404 7.119338989257812 6.015892028808594 7.394496917724609 5.899147033691406 7.690708160400391 C 5.78249979019165 7.986667633056641 5.673476219177246 8.303652763366699 5.572872161865234 8.639588356018066 C 5.472351551055908 8.975246429443359 5.380233764648438 9.329833030700684 5.297313213348389 9.70128345489502 C 5.275832176208496 9.797503471374512 5.247967720031738 9.880428314208984 5.214670658111572 9.950100898742676 C 5.181380748748779 10.01975917816162 5.142660617828369 10.076171875 5.099464416503906 10.11938190460205 C 5.056274890899658 10.16258144378662 5.008613109588623 10.19258689880371 4.957427501678467 10.20944499969482 C 4.906253337860107 10.22629642486572 4.851553916931152 10.23000717163086 4.794284820556641 10.22062206268311 C 4.744489192962646 10.2124605178833 4.6927490234375 10.1944055557251 4.639686584472656 10.16649055480957 C 4.586636543273926 10.13857746124268 4.532259464263916 10.10080528259277 4.477182388305664 10.05320167541504 C 4.422115325927734 10.00560665130615 4.366342067718506 9.948183059692383 4.310484409332275 9.880958557128906 C 4.254635810852051 9.813745498657227 4.198701858520508 9.736733436584473 4.143296241760254 9.649947166442871 C 4.024210929870605 9.463413238525391 3.918857336044312 9.249374389648438 3.830296277999878 9.022025108337402 C 3.741745948791504 8.79470157623291 3.669970273971558 8.554033279418945 3.618033409118652 8.314196586608887 C 3.566094398498535 8.074344635009766 3.533990383148193 7.835282802581787 3.524797201156616 7.611204147338867 C 3.515603542327881 7.387075901031494 3.529330730438232 7.177897930145264 3.569071769714355 6.997873306274414 C 3.667028427124023 6.554156303405762 3.776348352432251 6.129837512969971 3.8960862159729 5.72740650177002 C 4.01594066619873 5.324575901031494 4.146237373352051 4.943658351898193 4.28602409362793 4.587153434753418 C 4.425952911376953 4.230285167694092 4.575395107269287 3.897870540618896 4.733391284942627 3.592425584793091 C 4.891552448272705 3.286670207977295 5.058285713195801 3.007936000823975 5.232631206512451 2.758759021759033 C 5.443130970001221 2.457907199859619 5.663911819458008 2.199127912521362 5.894556522369385 1.982725620269775 C 6.125485897064209 1.766053676605225 6.366299152374268 1.591874480247498 6.616572380065918 1.460487484931946 C 6.867148876190186 1.328943371772766 7.127204895019531 1.240303635597229 7.396311283111572 1.194876909255981 C 7.665740489959717 1.149401187896729 7.944234371185303 1.147240519523621 8.231363296508789 1.188706994056702 Z" stroke="none" fill="#72a2ad"/>
        </g>
        <g id="Path_4" data-name="Path 4" fill="none" stroke-linecap="round" stroke-linejoin="bevel" stroke-miterlimit="10">
          <path d="M15.65,15.789s-.313-.78-.851-1.961-1.3-2.759-2.192-4.357a28.6,28.6,0,0,0-2.986-4.46A5.986,5.986,0,0,0,6.393,2.716a2.121,2.121,0,0,0-1.875.627,4.972,4.972,0,0,0-1.172,2.28,13.637,13.637,0,0,0-.386,3.565,24.728,24.728,0,0,0,.485,4.5,29.863,29.863,0,0,0,1.3,4.634A24.5,24.5,0,0,0,6.6,22.257a13.467,13.467,0,0,0,2.167,2.838,4.723,4.723,0,0,0,2.249,1.329,2.1,2.1,0,0,0,1.4-.19,3.279,3.279,0,0,0,1.13-1.03,7.494,7.494,0,0,0,.87-1.661,14.407,14.407,0,0,0,.618-2.078" stroke="none"/>
          <path d="M 6.033624649047852 0.8712987303733826 C 6.310597896575928 0.911298930644989 6.59573221206665 0.9956768155097961 6.888497352600098 1.12412416934967 C 7.181589603424072 1.252715110778809 7.482316970825195 1.425471663475037 7.790144443511963 1.642081141471863 C 8.098302841186523 1.85892379283905 8.413562774658203 2.119706630706787 8.735384941101074 2.424108743667603 C 9.057540893554688 2.728820323944092 9.386255264282227 3.077228784561157 9.720983505249023 3.469004392623901 C 9.980053901672363 3.772219896316528 10.24274730682373 4.101460456848145 10.50859260559082 4.456041812896729 C 10.77463150024414 4.810884952545166 11.04381084442139 5.191088199615479 11.31565952301025 5.59596586227417 C 11.58769607543945 6.001125812530518 11.86239242553711 6.43097448348999 12.13926792144775 6.884822368621826 C 12.41632270812988 7.338969230651855 12.69554996490479 7.817127227783203 12.97646522521973 8.31859302520752 C 13.44705390930176 9.158648490905762 13.88236427307129 9.992591857910156 14.27153491973877 10.773268699646 C 14.66100025177002 11.55453205108643 15.00415325164795 12.2822322845459 15.29016017913818 12.90917491912842 C 15.57630634307861 13.53642272949219 15.80517673492432 14.06265163421631 15.96597480773926 14.44068908691406 C 16.12681007385254 14.81882095336914 16.21950149536133 15.04859828948975 16.2332935333252 15.08292770385742 C 16.32938575744629 15.32213020324707 16.40459251403809 15.56980991363525 16.45829963684082 15.81285381317139 C 16.51200485229492 16.05588531494141 16.54420280456543 16.29423904418945 16.55430221557617 16.51482009887695 C 16.56439590454102 16.73534965515137 16.55239677429199 16.93807983398438 16.51771354675293 17.10993385314941 C 16.4830436706543 17.28172874450684 16.42571258544922 17.42264938354492 16.34513854980469 17.51964950561523 C 16.32173156738281 17.54782676696777 16.29700469970703 17.5715274810791 16.27112579345703 17.59087944030762 C 16.24525260925293 17.61023139953613 16.21822738647461 17.62523651123047 16.19022369384766 17.63603401184082 C 16.16222190856934 17.64683151245117 16.13323974609375 17.65341758728027 16.10344886779785 17.65593338012695 C 16.07366180419922 17.65844917297363 16.04306411743164 17.65689277648926 16.01182556152344 17.65140151977539 C 15.93565940856934 17.63801193237305 15.85567474365234 17.60124588012695 15.77430248260498 17.54307174682617 C 15.69295024871826 17.48491096496582 15.61020755767822 17.40535354614258 15.52849960327148 17.30635452270508 C 15.44681358337402 17.2073802947998 15.36615943908691 17.0889720916748 15.28896141052246 16.95308494567871 C 15.21177387237549 16.81721687316895 15.13803672790527 16.66386795043945 15.0701732635498 16.49498176574707 L 15.07017040252686 16.49498558044434 C 15.06720161437988 16.48760986328125 14.99031543731689 16.29743385314941 14.85060214996338 15.96989154815674 C 14.71091747283936 15.64241981506348 14.50846290588379 15.17771244049072 14.25436401367188 14.62126922607422 C 14.00037670135498 14.0650691986084 13.69484710693359 13.41734027862549 13.3489294052124 12.72359752655029 C 13.0032434463501 12.03031921386719 12.61730480194092 11.29125308990479 12.20227813720703 10.5518684387207 C 11.96590423583984 10.13075828552246 11.73179244995117 9.73016357421875 11.50034141540527 9.350666999816895 C 11.26901721954346 8.971381187438965 11.04035663604736 8.613177299499512 10.81475639343262 8.276637077331543 C 10.58928680419922 7.940291404724121 10.36687755584717 7.625588417053223 10.14792823791504 7.33310604095459 C 9.929109573364258 7.040798664093018 9.713748931884766 6.770694255828857 9.502241134643555 6.523357391357422 C 9.249637603759766 6.227964401245117 9.002297401428223 5.965150833129883 8.760622978210449 5.735161304473877 C 8.519137382507324 5.505353450775146 8.283313751220703 5.308329582214355 8.053557395935059 5.144347190856934 C 7.823984622955322 4.980498790740967 7.600472450256348 4.849639415740967 7.383419036865234 4.752017021179199 C 7.166546821594238 4.654477596282959 6.956124782562256 4.590122222900391 6.752555847167969 4.559202671051025 C 6.132445812225342 4.465010643005371 5.597591400146484 4.656570911407471 5.161250591278076 5.082401752471924 C 4.725962162017822 5.5072021484375 4.38858699798584 6.165268898010254 4.162211418151855 7.005835056304932 C 3.936291456222534 7.844719886779785 3.820808172225952 8.865818023681641 3.828872680664062 10.01925086975098 C 3.836927652359009 11.17112159729004 3.968199014663696 12.45584583282471 4.236032009124756 13.82445812225342 C 4.503736019134521 15.19241714477539 4.883194923400879 16.51807975769043 5.340242385864258 17.7446117401123 C 5.797532081604004 18.9717903137207 6.33291482925415 20.10086631774902 6.912276268005371 21.07433319091797 C 7.492436408996582 22.04914474487305 8.11713695526123 22.86865997314453 8.752091407775879 23.47456550598145 C 9.388352394104004 24.08171653747559 10.03529453277588 24.47474098205566 10.658278465271 24.59442329406738 C 10.86177444458008 24.63351440429688 11.06005382537842 24.64032173156738 11.2527961730957 24.61495780944824 C 11.44570541381836 24.58957099914551 11.63307476043701 24.53195762634277 11.81458282470703 24.44222640991211 C 11.99625396728516 24.3524169921875 12.17205905914307 24.23043060302734 12.34167098999023 24.07638168334961 C 12.51143932342529 23.92218780517578 12.67501068115234 23.73587226867676 12.83205890655518 23.51753807067871 C 12.97095489501953 23.32443046569824 13.10415554046631 23.10625076293945 13.23086547851562 22.86494255065918 C 13.35768222808838 22.62343215942383 13.47800064086914 22.3587532043457 13.59102439880371 22.0728702545166 C 13.70414352416992 21.78674697875977 13.80995559692383 21.47938346862793 13.90766334533691 21.15275001525879 C 14.00545120239258 20.82584953308105 14.09511947631836 20.47965431213379 14.17586708068848 20.11614608764648 C 14.19680500030518 20.02188873291016 14.2240514755249 19.94079399108887 14.25666999816895 19.87279891967773 C 14.28929805755615 19.8047924041748 14.32730388641357 19.7498950958252 14.36975288391113 19.70804977416992 C 14.41221237182617 19.66619873046875 14.45911979675293 19.63740348815918 14.50954151153564 19.62162017822266 C 14.55997276306152 19.60583114624023 14.61392021179199 19.60305404663086 14.67044734954834 19.61323738098145 C 14.71961879730225 19.62209510803223 14.77074241638184 19.64076042175293 14.82320022583008 19.66919136047363 C 14.87567043304443 19.69762992858887 14.92947673797607 19.7358455657959 14.98400974273682 19.7837963104248 C 15.03855133056641 19.83175659179688 15.0938138961792 19.88945579528809 15.14918804168701 19.95685958862305 C 15.20457172393799 20.02427673339844 15.2600622177124 20.10139846801758 15.31504726409912 20.18819046020508 C 15.43327903747559 20.37481117248535 15.53793811798096 20.58843994140625 15.62594985961914 20.8149471282959 C 15.7139720916748 21.04147911071777 15.78532695770264 21.28085136413574 15.83694553375244 21.5189323425293 C 15.88855838775635 21.75699424743652 15.92043304443359 21.99372482299805 15.92950630187988 22.21498107910156 C 15.93857669830322 22.43619346618652 15.9248571395874 22.64190483093262 15.88530349731445 22.81801223754883 C 15.78793334960938 23.25149154663086 15.67948627471924 23.66473388671875 15.56093597412109 24.05536270141602 C 15.44250202178955 24.44561386108398 15.31398963928223 24.81328010559082 15.17637252807617 25.1560115814209 C 15.03889465332031 25.49839973449707 14.89233207702637 25.81589317321777 14.73765563964844 26.10615348815918 C 14.58313655853271 26.39612579345703 14.42051887512207 26.65891265869141 14.25076389312744 26.89219093322754 C 14.0462760925293 27.17321395874023 13.8322229385376 27.41244697570801 13.60903835296631 27.60976219177246 C 13.38612270355225 27.80684089660645 13.15409660339355 27.96211242675781 12.91339302062988 28.07545471191406 C 12.67297554016113 28.18866539001465 12.42389106750488 28.26004219055176 12.166579246521 28.28947448730469 C 11.90956020355225 28.31886863708496 11.64432430267334 28.3064136505127 11.37129306793213 28.25197410583496 C 10.52508926391602 28.0832576751709 9.646745681762695 27.54219818115234 8.783231735229492 26.71010208129883 C 7.922118186950684 25.88031959533691 7.075045108795166 24.76043891906738 6.288351058959961 23.43012428283691 C 5.503113746643066 22.10227394104004 4.777220249176025 20.56339454650879 4.156683921813965 18.89162826538086 C 3.536587715148926 17.22105026245117 3.020926475524902 15.41568946838379 2.655806303024292 13.55247211456299 C 2.290449380874634 11.68804550170898 2.109389543533325 9.936977386474609 2.094845533370972 8.365763664245605 C 2.080275058746338 6.791656494140625 2.232817649841309 5.396443843841553 2.535117387771606 4.248291015625 C 2.838240146636963 3.097019195556641 3.292153596878052 2.193332433700562 3.87954044342041 1.607044100761414 C 4.46885347366333 1.018826127052307 5.192753791809082 0.7498587965965271 6.033624649047852 0.8712987303733826 Z" stroke="none" fill="#72a2ad"/>
        </g>
      </g>
    </g>
  </g>
</svg>
